<svg width="515" height="176" viewBox="0 0 515 176" fill="none" xmlns="http://www.w3.org/2000/svg">
<path d="M150.226 25.7744C133.605 9.15337 111.506 0 88 0C64.4944 0 42.3954 9.15337 25.7744 25.7744C9.15337 42.3954 0 64.4944 0 88C0 111.506 9.15372 133.604 25.7744 150.226C42.395 166.847 64.4944 176 88 176C111.506 176 133.605 166.847 150.226 150.226C166.847 133.605 176 111.506 176 88C176 64.4944 166.846 42.3957 150.226 25.7744Z" fill="#0984E3"/>
<path d="M214.219 103.094C213.448 103.094 212.885 103 212.531 102.812C212.177 102.604 212 102.292 212 101.875V77.9375H209.781C209.031 77.9375 208.656 77.3854 208.656 76.2812V75.5938C208.656 74.4896 209.031 73.9375 209.781 73.9375H212V68.6562C212 65.7396 212.719 63.7396 214.156 62.6562C215.615 61.5521 217.281 61 219.156 61C221.865 61 223.219 61.5625 223.219 62.6875C223.219 62.875 223.167 63.1875 223.062 63.625C222.979 64.0417 222.844 64.4167 222.656 64.75C222.49 65.0833 222.292 65.25 222.062 65.25C221.938 65.25 221.677 65.2083 221.281 65.125C220.885 65.0417 220.344 65 219.656 65C219.031 65 218.5 65.0938 218.062 65.2812C217.646 65.4688 217.302 65.8646 217.031 66.4688C216.781 67.0729 216.656 67.9479 216.656 69.0938V73.9375H221.5C221.896 73.9375 222.177 74.0729 222.344 74.3438C222.531 74.5938 222.625 75.0104 222.625 75.5938V76.2812C222.625 76.8646 222.531 77.2917 222.344 77.5625C222.177 77.8125 221.896 77.9375 221.5 77.9375H216.656V101.875C216.656 102.292 216.479 102.604 216.125 102.812C215.771 103 215.219 103.094 214.469 103.094H214.219ZM229.625 66.9375C228.125 66.9375 227.375 66.5312 227.375 65.7188V62.4375C227.375 61.625 228.125 61.2188 229.625 61.2188H230.281C231.76 61.2188 232.5 61.625 232.5 62.4375V65.7188C232.5 66.5312 231.76 66.9375 230.281 66.9375H229.625ZM229.844 103.094C228.344 103.094 227.594 102.688 227.594 101.875V75.0625C227.594 74.25 228.344 73.8438 229.844 73.8438H230.062C231.542 73.8438 232.281 74.25 232.281 75.0625V101.875C232.281 102.688 231.542 103.094 230.062 103.094H229.844ZM243.128 103.094C242.336 103.094 241.763 103 241.409 102.812C241.055 102.604 240.878 102.292 240.878 101.875V82.375C240.878 79.9583 240.763 78.2188 240.534 77.1562C240.305 76.0729 240.19 75.4792 240.19 75.375C240.19 74.9167 240.534 74.5938 241.222 74.4062C241.93 74.1979 242.597 74.0938 243.222 74.0938C243.742 74.0938 244.128 74.375 244.378 74.9375C244.628 75.5 244.805 76.0729 244.909 76.6562C245.034 77.2396 245.117 77.6146 245.159 77.7812C246.326 76.4688 247.669 75.4479 249.19 74.7188C250.732 73.9896 252.284 73.625 253.847 73.625C256.68 73.625 258.888 74.4271 260.472 76.0312C262.076 77.6146 262.878 79.8021 262.878 82.5938V101.875C262.878 102.292 262.701 102.604 262.347 102.812C261.992 103 261.43 103.094 260.659 103.094H260.409C259.659 103.094 259.107 103 258.753 102.812C258.399 102.604 258.222 102.292 258.222 101.875V83.0625C258.222 81.3542 257.722 80.0312 256.722 79.0938C255.742 78.1354 254.357 77.6562 252.565 77.6562C251.315 77.6562 250.055 78.0104 248.784 78.7188C247.534 79.4062 246.451 80.3542 245.534 81.5625V101.875C245.534 102.292 245.357 102.604 245.003 102.812C244.649 103 244.097 103.094 243.347 103.094H243.128ZM278.037 103.312C275.203 103.312 272.912 102.615 271.162 101.219C269.412 99.8229 268.537 97.75 268.537 95C268.537 92.1042 269.422 89.9271 271.193 88.4688C272.964 86.9896 275.12 86.0417 277.662 85.625C280.224 85.1875 283.328 84.9375 286.974 84.875V82.25C286.974 80.8542 286.495 79.7396 285.537 78.9062C284.599 78.0521 283.047 77.625 280.881 77.625C279.235 77.625 277.787 77.8229 276.537 78.2188C275.308 78.5938 274.151 79.0521 273.068 79.5938C272.61 79.8229 272.328 79.9375 272.224 79.9375C271.974 79.9375 271.693 79.7604 271.381 79.4062C271.089 79.0312 270.828 78.6146 270.599 78.1562C270.391 77.6979 270.287 77.3646 270.287 77.1562C270.287 76.6771 270.776 76.1562 271.756 75.5938C272.756 75.0312 274.058 74.5625 275.662 74.1875C277.266 73.8125 278.943 73.625 280.693 73.625C284.172 73.625 286.87 74.3854 288.787 75.9062C290.703 77.4271 291.662 79.5625 291.662 82.3125V94.7812C291.662 97.1979 291.766 98.9479 291.974 100.031C292.203 101.094 292.318 101.677 292.318 101.781C292.318 102.24 291.964 102.573 291.256 102.781C290.568 102.969 289.922 103.062 289.318 103.062C288.818 103.062 288.443 102.781 288.193 102.219C287.964 101.656 287.735 100.844 287.506 99.7812L287.381 99.1562C286.235 100.427 284.881 101.438 283.318 102.188C281.776 102.938 280.016 103.312 278.037 103.312ZM278.287 99.2812C280.12 99.2812 281.683 98.9479 282.974 98.2812C284.266 97.6146 285.599 96.6667 286.974 95.4375V88.875C284.224 88.8958 281.964 89.0104 280.193 89.2188C278.422 89.4271 276.87 89.9583 275.537 90.8125C274.203 91.6458 273.537 92.9479 273.537 94.7188C273.537 96.1979 273.933 97.3333 274.724 98.125C275.537 98.8958 276.724 99.2812 278.287 99.2812ZM301.946 103.094C301.154 103.094 300.581 103 300.227 102.812C299.873 102.604 299.696 102.292 299.696 101.875V82.375C299.696 79.9583 299.581 78.2188 299.352 77.1562C299.123 76.0729 299.008 75.4792 299.008 75.375C299.008 74.9167 299.352 74.5938 300.039 74.4062C300.748 74.1979 301.414 74.0938 302.039 74.0938C302.56 74.0938 302.946 74.375 303.196 74.9375C303.446 75.5 303.623 76.0729 303.727 76.6562C303.852 77.2396 303.935 77.6146 303.977 77.7812C305.144 76.4688 306.487 75.4479 308.008 74.7188C309.55 73.9896 311.102 73.625 312.664 73.625C315.498 73.625 317.706 74.4271 319.289 76.0312C320.894 77.6146 321.696 79.8021 321.696 82.5938V101.875C321.696 102.292 321.519 102.604 321.164 102.812C320.81 103 320.248 103.094 319.477 103.094H319.227C318.477 103.094 317.925 103 317.571 102.812C317.217 102.604 317.039 102.292 317.039 101.875V83.0625C317.039 81.3542 316.539 80.0312 315.539 79.0938C314.56 78.1354 313.175 77.6562 311.383 77.6562C310.133 77.6562 308.873 78.0104 307.602 78.7188C306.352 79.4062 305.269 80.3542 304.352 81.5625V101.875C304.352 102.292 304.175 102.604 303.821 102.812C303.467 103 302.914 103.094 302.164 103.094H301.946ZM341.199 103.312C336.594 103.312 333.157 102.135 330.886 99.7812C328.636 97.4062 327.511 93.5938 327.511 88.3438C327.511 83.0312 328.771 79.25 331.292 77C333.813 74.75 336.949 73.625 340.699 73.625C342.094 73.625 343.438 73.75 344.73 74C346.021 74.2292 347.063 74.5417 347.855 74.9375C348.646 75.3333 349.042 75.75 349.042 76.1875C349.042 76.4792 348.938 76.8646 348.73 77.3438C348.542 77.8229 348.303 78.25 348.011 78.625C347.74 78.9792 347.49 79.1562 347.261 79.1562C347.199 79.1562 347.105 79.1354 346.98 79.0938C346.855 79.0312 346.74 78.9792 346.636 78.9375C344.761 78.0625 342.74 77.625 340.574 77.625C338.011 77.625 336.032 78.4688 334.636 80.1562C333.24 81.8229 332.542 84.5104 332.542 88.2188C332.542 90.8438 332.824 92.9688 333.386 94.5938C333.949 96.1979 334.855 97.3854 336.105 98.1562C337.376 98.9271 339.063 99.3125 341.167 99.3125C343.48 99.3125 345.563 98.8333 347.417 97.875C347.605 97.8333 347.74 97.7917 347.824 97.75C347.928 97.6875 348.001 97.6562 348.042 97.6562C348.271 97.6562 348.532 97.8333 348.824 98.1875C349.115 98.5417 349.365 98.9479 349.574 99.4062C349.803 99.8646 349.917 100.229 349.917 100.5C349.917 100.938 349.521 101.375 348.73 101.812C347.938 102.25 346.865 102.615 345.511 102.906C344.178 103.177 342.74 103.312 341.199 103.312ZM357.42 66.9375C355.941 66.9375 355.201 66.5312 355.201 65.7188V62.4375C355.201 61.625 355.941 61.2188 357.42 61.2188H358.076C359.576 61.2188 360.326 61.625 360.326 62.4375V65.7188C360.326 66.5312 359.576 66.9375 358.076 66.9375H357.42ZM357.639 103.094C356.16 103.094 355.42 102.688 355.42 101.875V75.0625C355.42 74.25 356.16 73.8438 357.639 73.8438H357.857C359.357 73.8438 360.107 74.25 360.107 75.0625V101.875C360.107 102.688 359.357 103.094 357.857 103.094H357.639ZM376.11 103.312C373.277 103.312 370.985 102.615 369.235 101.219C367.485 99.8229 366.61 97.75 366.61 95C366.61 92.1042 367.496 89.9271 369.266 88.4688C371.037 86.9896 373.194 86.0417 375.735 85.625C378.298 85.1875 381.402 84.9375 385.048 84.875V82.25C385.048 80.8542 384.569 79.7396 383.61 78.9062C382.673 78.0521 381.121 77.625 378.954 77.625C377.308 77.625 375.86 77.8229 374.61 78.2188C373.381 78.5938 372.225 79.0521 371.141 79.5938C370.683 79.8229 370.402 79.9375 370.298 79.9375C370.048 79.9375 369.766 79.7604 369.454 79.4062C369.162 79.0312 368.902 78.6146 368.673 78.1562C368.464 77.6979 368.36 77.3646 368.36 77.1562C368.36 76.6771 368.85 76.1562 369.829 75.5938C370.829 75.0312 372.131 74.5625 373.735 74.1875C375.339 73.8125 377.016 73.625 378.766 73.625C382.246 73.625 384.944 74.3854 386.86 75.9062C388.777 77.4271 389.735 79.5625 389.735 82.3125V94.7812C389.735 97.1979 389.839 98.9479 390.048 100.031C390.277 101.094 390.391 101.677 390.391 101.781C390.391 102.24 390.037 102.573 389.329 102.781C388.641 102.969 387.996 103.062 387.391 103.062C386.891 103.062 386.516 102.781 386.266 102.219C386.037 101.656 385.808 100.844 385.579 99.7812L385.454 99.1562C384.308 100.427 382.954 101.438 381.391 102.188C379.85 102.938 378.089 103.312 376.11 103.312ZM376.36 99.2812C378.194 99.2812 379.756 98.9479 381.048 98.2812C382.339 97.6146 383.673 96.6667 385.048 95.4375V88.875C382.298 88.8958 380.037 89.0104 378.266 89.2188C376.496 89.4271 374.944 89.9583 373.61 90.8125C372.277 91.6458 371.61 92.9479 371.61 94.7188C371.61 96.1979 372.006 97.3333 372.798 98.125C373.61 98.8958 374.798 99.2812 376.36 99.2812ZM404.707 103.312C402.853 103.312 401.196 102.75 399.738 101.625C398.28 100.5 397.551 98.5104 397.551 95.6562V62.4375C397.551 61.625 398.29 61.2188 399.769 61.2188H400.019C401.478 61.2188 402.207 61.625 402.207 62.4375V95.2188C402.207 96.7396 402.478 97.8021 403.019 98.4062C403.561 99.0104 404.29 99.3125 405.207 99.3125C405.894 99.3125 406.436 99.2708 406.832 99.1875C407.228 99.1042 407.488 99.0625 407.613 99.0625C407.946 99.0625 408.217 99.3958 408.426 100.062C408.655 100.729 408.769 101.26 408.769 101.656C408.769 102.76 407.415 103.312 404.707 103.312ZM411.397 103.094C410.564 103.094 409.96 103.021 409.585 102.875C409.21 102.708 409.022 102.469 409.022 102.156C409.022 102.01 409.074 101.76 409.178 101.406L422.335 64.875C422.543 64.2708 423.282 63.9688 424.553 63.9688H426.178C427.449 63.9688 428.189 64.2708 428.397 64.875L441.553 101.438C441.657 101.667 441.71 101.906 441.71 102.156C441.71 102.781 440.928 103.094 439.366 103.094H438.897C437.605 103.094 436.855 102.802 436.647 102.219L433.397 93.0938H417.085L413.897 102.219C413.71 102.802 412.97 103.094 411.678 103.094H411.397ZM431.897 88.875L426.085 72.3438C425.918 71.8854 425.782 71.3646 425.678 70.7812C425.574 70.1979 425.48 69.6354 425.397 69.0938H425.272C425.022 70.4896 424.741 71.5729 424.428 72.3438L418.616 88.875H431.897ZM448.212 114.562C446.712 114.562 445.962 114.156 445.962 113.344V82.375C445.962 79.9583 445.848 78.2188 445.618 77.1562C445.389 76.0729 445.275 75.4792 445.275 75.375C445.275 74.9167 445.618 74.5938 446.306 74.4062C447.014 74.1979 447.681 74.0938 448.306 74.0938C448.827 74.0938 449.212 74.375 449.462 74.9375C449.712 75.5 449.889 76.0729 449.993 76.6562C450.118 77.2396 450.202 77.6146 450.243 77.7812C452.889 75.0104 455.837 73.625 459.087 73.625C461.316 73.625 463.243 74.2604 464.868 75.5312C466.493 76.8021 467.733 78.5625 468.587 80.8125C469.441 83.0625 469.868 85.625 469.868 88.5C469.868 91.625 469.389 94.3021 468.431 96.5312C467.493 98.7604 466.171 100.448 464.462 101.594C462.754 102.74 460.785 103.312 458.556 103.312C456.952 103.312 455.525 103.073 454.275 102.594C453.046 102.115 451.827 101.417 450.618 100.5V113.344C450.618 114.156 449.889 114.562 448.431 114.562H448.212ZM457.493 99.2188C459.973 99.1562 461.837 98.25 463.087 96.5C464.337 94.75 464.962 92.2083 464.962 88.875C464.962 85.2917 464.368 82.5312 463.181 80.5938C462.014 78.6354 460.327 77.6562 458.118 77.6562C456.889 77.6562 455.608 77.9896 454.275 78.6562C452.962 79.3229 451.743 80.2708 450.618 81.5V96.7188C452.66 98.3854 454.952 99.2188 457.493 99.2188ZM478.871 114.562C477.371 114.562 476.621 114.156 476.621 113.344V82.375C476.621 79.9583 476.507 78.2188 476.277 77.1562C476.048 76.0729 475.934 75.4792 475.934 75.375C475.934 74.9167 476.277 74.5938 476.965 74.4062C477.673 74.1979 478.34 74.0938 478.965 74.0938C479.486 74.0938 479.871 74.375 480.121 74.9375C480.371 75.5 480.548 76.0729 480.652 76.6562C480.777 77.2396 480.861 77.6146 480.902 77.7812C483.548 75.0104 486.496 73.625 489.746 73.625C491.975 73.625 493.902 74.2604 495.527 75.5312C497.152 76.8021 498.392 78.5625 499.246 80.8125C500.1 83.0625 500.527 85.625 500.527 88.5C500.527 91.625 500.048 94.3021 499.09 96.5312C498.152 98.7604 496.83 100.448 495.121 101.594C493.413 102.74 491.444 103.312 489.215 103.312C487.611 103.312 486.184 103.073 484.934 102.594C483.705 102.115 482.486 101.417 481.277 100.5V113.344C481.277 114.156 480.548 114.562 479.09 114.562H478.871ZM488.152 99.2188C490.632 99.1562 492.496 98.25 493.746 96.5C494.996 94.75 495.621 92.2083 495.621 88.875C495.621 85.2917 495.027 82.5312 493.84 80.5938C492.673 78.6354 490.986 77.6562 488.777 77.6562C487.548 77.6562 486.267 77.9896 484.934 78.6562C483.621 79.3229 482.402 80.2708 481.277 81.5V96.7188C483.319 98.3854 485.611 99.2188 488.152 99.2188Z" fill="white"/>
<path d="M212.531 102.812L212.024 103.674L212.044 103.686L212.063 103.696L212.531 102.812ZM212 77.9375H213V76.9375H212V77.9375ZM212 73.9375V74.9375H213V73.9375H212ZM214.156 62.6562L214.758 63.4549L214.76 63.4535L214.156 62.6562ZM223.062 63.625L222.09 63.3934L222.085 63.4111L222.082 63.4289L223.062 63.625ZM222.656 64.75L221.785 64.2597L221.773 64.281L221.762 64.3028L222.656 64.75ZM218.062 65.2812L217.669 64.3621L217.66 64.3656L217.652 64.3693L218.062 65.2812ZM217.031 66.4688L216.119 66.0597L216.113 66.073L216.107 66.0864L217.031 66.4688ZM216.656 73.9375H215.656V74.9375H216.656V73.9375ZM222.344 74.3438L221.492 74.8678L221.516 74.907L221.544 74.9437L222.344 74.3438ZM222.344 77.5625L221.522 76.9933L221.517 77.0005L221.512 77.0078L222.344 77.5625ZM216.656 77.9375V76.9375H215.656V77.9375H216.656ZM216.125 102.812L216.593 103.696L216.613 103.686L216.632 103.674L216.125 102.812ZM214.219 102.094C213.487 102.094 213.129 101.998 212.999 101.929L212.063 103.696C212.642 104.002 213.409 104.094 214.219 104.094V102.094ZM213.038 101.951C213.013 101.935 213.002 101.925 212.999 101.923C212.997 101.921 212.999 101.923 213.003 101.929C213.006 101.935 213.006 101.937 213.005 101.932C213.004 101.926 213 101.908 213 101.875H211C211 102.64 211.359 103.283 212.024 103.674L213.038 101.951ZM213 101.875V77.9375H211V101.875H213ZM212 76.9375H209.781V78.9375H212V76.9375ZM209.781 76.9375C209.717 76.9375 209.709 76.926 209.73 76.9363C209.755 76.9487 209.767 76.9656 209.765 76.9616C209.757 76.9509 209.728 76.9019 209.702 76.785C209.675 76.6683 209.656 76.5039 209.656 76.2812H207.656C207.656 76.9153 207.758 77.567 208.11 78.0853C208.509 78.6728 209.123 78.9375 209.781 78.9375V76.9375ZM209.656 76.2812V75.5938H207.656V76.2812H209.656ZM209.656 75.5938C209.656 75.3711 209.675 75.2067 209.702 75.09C209.728 74.9731 209.757 74.9241 209.765 74.9134C209.767 74.9094 209.755 74.9263 209.73 74.9387C209.709 74.949 209.717 74.9375 209.781 74.9375V72.9375C209.123 72.9375 208.509 73.2022 208.11 73.7897C207.758 74.308 207.656 74.9597 207.656 75.5938H209.656ZM209.781 74.9375H212V72.9375H209.781V74.9375ZM213 73.9375V68.6562H211V73.9375H213ZM213 68.6562C213 65.8583 213.694 64.2565 214.758 63.4549L213.554 61.8576C211.743 63.2226 211 65.6209 211 68.6562H213ZM214.76 63.4535C216.04 62.4844 217.493 62 219.156 62V60C217.069 60 215.189 60.6198 213.553 61.859L214.76 63.4535ZM219.156 62C220.471 62 221.327 62.1409 221.82 62.3454C222.056 62.4435 222.151 62.5333 222.185 62.5751C222.206 62.601 222.219 62.624 222.219 62.6875H224.219C224.219 62.1885 224.063 61.7193 223.745 61.3234C223.44 60.9432 223.028 60.6815 222.587 60.4984C221.725 60.1403 220.55 60 219.156 60V62ZM222.219 62.6875C222.219 62.7455 222.194 62.9558 222.09 63.3934L224.035 63.8566C224.139 63.4192 224.219 63.0045 224.219 62.6875H222.219ZM222.082 63.4289C222.017 63.7537 221.915 64.0277 221.785 64.2597L223.528 65.2403C223.772 64.8057 223.941 64.3296 224.043 63.8211L222.082 63.4289ZM221.762 64.3028C221.715 64.397 221.698 64.3942 221.739 64.3601C221.762 64.3402 221.804 64.3109 221.865 64.2872C221.927 64.2628 221.995 64.25 222.062 64.25V66.25C222.872 66.25 223.329 65.6407 223.551 65.1972L221.762 64.3028ZM222.062 64.25C222.084 64.25 222.054 64.2508 221.931 64.2313C221.823 64.214 221.677 64.1863 221.487 64.1465L221.075 66.1035C221.448 66.182 221.814 66.25 222.062 66.25V64.25ZM221.487 64.1465C220.993 64.0424 220.372 64 219.656 64V66C220.315 66 220.778 66.041 221.075 66.1035L221.487 64.1465ZM219.656 64C218.936 64 218.263 64.1074 217.669 64.3621L218.456 66.2004C218.737 66.0801 219.126 66 219.656 66V64ZM217.652 64.3693C216.93 64.6943 216.445 65.3309 216.119 66.0597L217.944 66.8778C218.159 66.3983 218.362 66.2432 218.473 66.1932L217.652 64.3693ZM216.107 66.0864C215.783 66.8706 215.656 67.9005 215.656 69.0938H217.656C217.656 67.9953 217.78 67.2752 217.955 66.8511L216.107 66.0864ZM215.656 69.0938V73.9375H217.656V69.0938H215.656ZM216.656 74.9375H221.5V72.9375H216.656V74.9375ZM221.5 74.9375C221.587 74.9375 221.6 74.9526 221.574 74.9401C221.561 74.9336 221.543 74.9226 221.525 74.9067C221.508 74.8909 221.497 74.8763 221.492 74.8678L223.195 73.8197C222.801 73.1783 222.145 72.9375 221.5 72.9375V74.9375ZM221.544 74.9437C221.528 74.9224 221.553 74.9452 221.579 75.0633C221.605 75.1788 221.625 75.3511 221.625 75.5938H223.625C223.625 74.9562 223.533 74.2626 223.144 73.7438L221.544 74.9437ZM221.625 75.5938V76.2812H223.625V75.5938H221.625ZM221.625 76.2812C221.625 76.5231 221.605 76.7004 221.578 76.8247C221.55 76.9504 221.521 76.9938 221.522 76.9933L223.166 78.1317C223.529 77.608 223.625 76.9303 223.625 76.2812H221.625ZM221.512 77.0078C221.521 76.9932 221.536 76.9759 221.555 76.9598C221.574 76.9438 221.592 76.9345 221.602 76.9299C221.62 76.9218 221.596 76.9375 221.5 76.9375V78.9375C222.112 78.9375 222.767 78.7311 223.176 78.1172L221.512 77.0078ZM221.5 76.9375H216.656V78.9375H221.5V76.9375ZM215.656 77.9375V101.875H217.656V77.9375H215.656ZM215.656 101.875C215.656 101.908 215.653 101.926 215.651 101.932C215.65 101.937 215.65 101.935 215.653 101.929C215.657 101.923 215.659 101.921 215.657 101.923C215.655 101.925 215.644 101.935 215.618 101.951L216.632 103.674C217.297 103.283 217.656 102.64 217.656 101.875H215.656ZM215.657 101.929C215.525 101.999 215.175 102.094 214.469 102.094V104.094C215.263 104.094 216.017 104.001 216.593 103.696L215.657 101.929ZM214.469 102.094H214.219V104.094H214.469V102.094ZM229.625 65.9375C228.933 65.9375 228.57 65.8381 228.414 65.7535C228.351 65.7193 228.353 65.7046 228.367 65.7279C228.383 65.7536 228.375 65.7625 228.375 65.7188H226.375C226.375 66.0813 226.461 66.4456 226.664 66.7761C226.866 67.104 227.149 67.3432 227.461 67.5121C228.055 67.8337 228.817 67.9375 229.625 67.9375V65.9375ZM228.375 65.7188V62.4375H226.375V65.7188H228.375ZM228.375 62.4375C228.375 62.3938 228.383 62.4026 228.367 62.4284C228.353 62.4516 228.351 62.4369 228.414 62.4027C228.57 62.3181 228.933 62.2188 229.625 62.2188V60.2188C228.817 60.2188 228.055 60.3225 227.461 60.6441C227.149 60.8131 226.866 61.0523 226.664 61.3802C226.461 61.7107 226.375 62.075 226.375 62.4375H228.375ZM229.625 62.2188H230.281V60.2188H229.625V62.2188ZM230.281 62.2188C230.962 62.2188 231.315 62.3179 231.464 62.3999C231.523 62.4326 231.52 62.4461 231.506 62.4231C231.491 62.3981 231.5 62.3912 231.5 62.4375H233.5C233.5 62.0776 233.416 61.7152 233.216 61.3855C233.017 61.0578 232.737 60.8174 232.427 60.647C231.837 60.3227 231.08 60.2188 230.281 60.2188V62.2188ZM231.5 62.4375V65.7188H233.5V62.4375H231.5ZM231.5 65.7188C231.5 65.7651 231.491 65.7582 231.506 65.7332C231.52 65.7101 231.523 65.7236 231.464 65.7563C231.315 65.8384 230.962 65.9375 230.281 65.9375V67.9375C231.08 67.9375 231.837 67.8335 232.427 67.5093C232.737 67.3389 233.017 67.0985 233.216 66.7707C233.416 66.4411 233.5 66.0787 233.5 65.7188H231.5ZM230.281 65.9375H229.625V67.9375H230.281V65.9375ZM229.844 102.094C229.151 102.094 228.789 101.994 228.633 101.91C228.569 101.876 228.572 101.861 228.586 101.884C228.602 101.91 228.594 101.919 228.594 101.875H226.594C226.594 102.238 226.679 102.602 226.883 102.932C227.085 103.26 227.368 103.499 227.68 103.668C228.274 103.99 229.036 104.094 229.844 104.094V102.094ZM228.594 101.875V75.0625H226.594V101.875H228.594ZM228.594 75.0625C228.594 75.0188 228.602 75.0276 228.586 75.0534C228.572 75.0766 228.569 75.0619 228.633 75.0277C228.789 74.9431 229.151 74.8438 229.844 74.8438V72.8438C229.036 72.8438 228.274 72.9475 227.68 73.2691C227.368 73.4381 227.085 73.6773 226.883 74.0052C226.679 74.3357 226.594 74.7 226.594 75.0625H228.594ZM229.844 74.8438H230.062V72.8438H229.844V74.8438ZM230.062 74.8438C230.743 74.8438 231.096 74.9429 231.245 75.0249C231.305 75.0576 231.302 75.0711 231.288 75.0481C231.273 75.0231 231.281 75.0162 231.281 75.0625H233.281C233.281 74.7026 233.198 74.3402 232.997 74.0105C232.799 73.6828 232.518 73.4424 232.208 73.272C231.618 72.9477 230.861 72.8438 230.062 72.8438V74.8438ZM231.281 75.0625V101.875H233.281V75.0625H231.281ZM231.281 101.875C231.281 101.921 231.273 101.914 231.288 101.889C231.302 101.866 231.305 101.88 231.245 101.913C231.096 101.995 230.743 102.094 230.062 102.094V104.094C230.861 104.094 231.618 103.99 232.208 103.666C232.518 103.495 232.799 103.255 232.997 102.927C233.198 102.597 233.281 102.235 233.281 101.875H231.281ZM230.062 102.094H229.844V104.094H230.062V102.094ZM241.409 102.812L240.902 103.674L240.921 103.686L240.941 103.696L241.409 102.812ZM240.534 77.1562L239.556 77.3632L239.556 77.3671L240.534 77.1562ZM241.222 74.4062L241.485 75.371L241.494 75.3684L241.504 75.3656L241.222 74.4062ZM244.909 76.6562L243.925 76.832L243.928 76.849L243.931 76.8658L244.909 76.6562ZM245.159 77.7812L244.189 78.0238L244.648 79.8611L245.906 78.4456L245.159 77.7812ZM249.19 74.7188L248.763 73.8148L248.758 73.817L249.19 74.7188ZM260.472 76.0312L259.76 76.7338L259.769 76.743L260.472 76.0312ZM262.347 102.812L262.814 103.696L262.834 103.686L262.854 103.674L262.347 102.812ZM258.753 102.812L258.246 103.674L258.265 103.686L258.285 103.696L258.753 102.812ZM256.722 79.0938L256.022 79.8084L256.03 79.8159L256.038 79.8233L256.722 79.0938ZM248.784 78.7188L249.266 79.595L249.271 79.5922L248.784 78.7188ZM245.534 81.5625L244.737 80.9581L244.534 81.2261V81.5625H245.534ZM245.003 102.812L245.471 103.696L245.49 103.686L245.51 103.674L245.003 102.812ZM243.128 102.094C242.369 102.094 242.004 101.996 241.877 101.929L240.941 103.696C241.522 104.004 242.303 104.094 243.128 104.094V102.094ZM241.916 101.951C241.89 101.935 241.879 101.925 241.877 101.923C241.875 101.921 241.877 101.923 241.881 101.929C241.884 101.935 241.884 101.937 241.883 101.932C241.881 101.926 241.878 101.908 241.878 101.875H239.878C239.878 102.64 240.237 103.283 240.902 103.674L241.916 101.951ZM241.878 101.875V82.375H239.878V101.875H241.878ZM241.878 82.375C241.878 79.952 241.765 78.1201 241.512 76.9454L239.556 77.3671C239.761 78.3174 239.878 79.9647 239.878 82.375H241.878ZM241.512 76.9493C241.398 76.4095 241.314 75.9971 241.258 75.709C241.23 75.5642 241.211 75.4568 241.199 75.3829C241.181 75.2747 241.19 75.3036 241.19 75.375H239.19C239.19 75.4985 239.214 75.6407 239.225 75.7069C239.241 75.8075 239.265 75.9358 239.294 76.0879C239.353 76.3936 239.441 76.8196 239.556 77.3632L241.512 76.9493ZM241.19 75.375C241.19 75.3887 241.187 75.4209 241.17 75.4594C241.153 75.4972 241.134 75.5163 241.133 75.5179C241.133 75.5179 241.138 75.5129 241.151 75.504C241.165 75.4951 241.185 75.4829 241.214 75.4685C241.273 75.4391 241.361 75.4048 241.485 75.371L240.958 73.4415C240.531 73.5581 240.1 73.7441 239.763 74.0602C239.397 74.4045 239.19 74.8608 239.19 75.375H241.19ZM241.504 75.3656C242.136 75.1795 242.707 75.0938 243.222 75.0938V73.0938C242.486 73.0938 241.723 73.2163 240.939 73.4469L241.504 75.3656ZM243.222 75.0938C243.261 75.0938 243.282 75.0989 243.29 75.1015C243.298 75.1039 243.304 75.1067 243.312 75.1125C243.328 75.1241 243.39 75.177 243.464 75.3436L245.292 74.5314C245.116 74.1355 244.86 73.7665 244.491 73.4969C244.111 73.2198 243.673 73.0938 243.222 73.0938V75.0938ZM243.464 75.3436C243.682 75.8353 243.835 76.3311 243.925 76.832L245.893 76.4805C245.775 75.8148 245.573 75.1647 245.292 74.5314L243.464 75.3436ZM243.931 76.8658C244.055 77.4446 244.142 77.8374 244.189 78.0238L246.129 77.5387C246.092 77.3918 246.013 77.0346 245.887 76.4467L243.931 76.8658ZM245.906 78.4456C246.989 77.2282 248.226 76.2899 249.623 75.6205L248.758 73.817C247.112 74.606 245.663 75.7093 244.412 77.1169L245.906 78.4456ZM249.618 75.6227C251.038 74.9509 252.445 74.625 253.847 74.625V72.625C252.123 72.625 250.426 73.0282 248.763 73.8148L249.618 75.6227ZM253.847 74.625C256.485 74.625 258.41 75.3661 259.76 76.7337L261.183 75.3288C259.366 73.4881 256.875 72.625 253.847 72.625V74.625ZM259.769 76.743C261.139 78.0956 261.878 80.0018 261.878 82.5938H263.878C263.878 79.6023 263.012 77.1335 261.174 75.3195L259.769 76.743ZM261.878 82.5938V101.875H263.878V82.5938H261.878ZM261.878 101.875C261.878 101.908 261.874 101.926 261.873 101.932C261.872 101.937 261.872 101.935 261.875 101.929C261.878 101.923 261.881 101.921 261.879 101.923C261.876 101.925 261.865 101.935 261.839 101.951L262.854 103.674C263.518 103.283 263.878 102.64 263.878 101.875H261.878ZM261.879 101.929C261.749 101.998 261.391 102.094 260.659 102.094V104.094C261.469 104.094 262.236 104.002 262.814 103.696L261.879 101.929ZM260.659 102.094H260.409V104.094H260.659V102.094ZM260.409 102.094C259.703 102.094 259.353 101.999 259.221 101.929L258.285 103.696C258.861 104.001 259.615 104.094 260.409 104.094V102.094ZM259.26 101.951C259.234 101.935 259.223 101.925 259.22 101.923C259.218 101.921 259.221 101.923 259.224 101.929C259.228 101.935 259.228 101.937 259.226 101.932C259.225 101.926 259.222 101.908 259.222 101.875H257.222C257.222 102.64 257.581 103.283 258.246 103.674L259.26 101.951ZM259.222 101.875V83.0625H257.222V101.875H259.222ZM259.222 83.0625C259.222 81.1505 258.655 79.5353 257.405 78.3642L256.038 79.8233C256.788 80.5272 257.222 81.5579 257.222 83.0625H259.222ZM257.421 78.3791C256.203 77.1868 254.535 76.6562 252.565 76.6562V78.6562C254.179 78.6562 255.282 79.084 256.022 79.8084L257.421 78.3791ZM252.565 76.6562C251.119 76.6562 249.692 77.0677 248.297 77.8453L249.271 79.5922C250.417 78.9532 251.512 78.6562 252.565 78.6562V76.6562ZM248.302 77.8425C246.922 78.6018 245.733 79.6453 244.737 80.9581L246.331 82.1669C247.168 81.063 248.146 80.2107 249.266 79.595L248.302 77.8425ZM244.534 81.5625V101.875H246.534V81.5625H244.534ZM244.534 101.875C244.534 101.908 244.53 101.926 244.529 101.932C244.528 101.937 244.528 101.935 244.531 101.929C244.535 101.923 244.537 101.921 244.535 101.923C244.532 101.925 244.521 101.935 244.496 101.951L245.51 103.674C246.175 103.283 246.534 102.64 246.534 101.875H244.534ZM244.535 101.929C244.402 101.999 244.052 102.094 243.347 102.094V104.094C244.141 104.094 244.895 104.001 245.471 103.696L244.535 101.929ZM243.347 102.094H243.128V104.094H243.347V102.094ZM271.193 88.4688L271.829 89.2407L271.834 89.2362L271.193 88.4688ZM277.662 85.625L277.824 86.6118L277.83 86.6107L277.662 85.625ZM286.974 84.875L286.991 85.8749L287.974 85.858V84.875H286.974ZM285.537 78.9062L284.863 79.6454L284.872 79.6533L284.881 79.6609L285.537 78.9062ZM276.537 78.2188L276.829 79.1753L276.839 79.1721L276.537 78.2188ZM273.068 79.5938L272.621 78.6993L273.068 79.5938ZM271.381 79.4062L270.591 80.0202L270.61 80.0446L270.631 80.0679L271.381 79.4062ZM270.599 78.1562L269.689 78.5701L269.697 78.5869L269.705 78.6035L270.599 78.1562ZM271.756 75.5938L271.265 74.7221L271.257 74.7266L271.756 75.5938ZM291.974 100.031L290.992 100.22L290.994 100.231L290.997 100.242L291.974 100.031ZM291.256 102.781L291.519 103.746L291.528 103.743L291.538 103.741L291.256 102.781ZM288.193 102.219L287.267 102.596L287.273 102.611L287.279 102.625L288.193 102.219ZM287.506 99.7812L286.525 99.9774L286.526 99.9847L286.528 99.9921L287.506 99.7812ZM287.381 99.1562L288.361 98.9601L287.971 97.0083L286.638 98.4866L287.381 99.1562ZM283.318 102.188L282.885 101.286L282.881 101.288L283.318 102.188ZM282.974 98.2812L282.516 97.3926L282.974 98.2812ZM286.974 95.4375L287.641 96.183L287.974 95.8849V95.4375H286.974ZM286.974 88.875H287.974V87.8674L286.967 87.875L286.974 88.875ZM275.537 90.8125L276.067 91.6606L276.076 91.6545L275.537 90.8125ZM274.724 98.125L274.017 98.8321L274.026 98.8414L274.036 98.8505L274.724 98.125ZM278.037 102.312C275.369 102.312 273.316 101.658 271.785 100.437L270.538 102.001C272.508 103.572 275.038 104.312 278.037 104.312V102.312ZM271.785 100.437C270.327 99.2741 269.537 97.5224 269.537 95H267.537C267.537 97.9776 268.496 100.372 270.538 102.001L271.785 100.437ZM269.537 95C269.537 92.3178 270.347 90.4608 271.829 89.2407L270.557 87.6968C268.497 89.3934 267.537 91.8906 267.537 95H269.537ZM271.834 89.2362C273.452 87.8847 275.437 87.003 277.824 86.6118L277.5 84.6382C274.803 85.0803 272.476 86.0945 270.552 87.7013L271.834 89.2362ZM277.83 86.6107C280.327 86.1844 283.378 85.9368 286.991 85.8749L286.957 83.8751C283.279 83.9382 280.121 84.1906 277.493 84.6393L277.83 86.6107ZM287.974 84.875V82.25H285.974V84.875H287.974ZM287.974 82.25C287.974 80.597 287.393 79.1951 286.193 78.1516L284.881 79.6609C285.597 80.2841 285.974 81.1114 285.974 82.25H287.974ZM286.21 78.1671C284.996 77.0607 283.133 76.625 280.881 76.625V78.625C282.961 78.625 284.203 79.0435 284.863 79.6454L286.21 78.1671ZM280.881 76.625C279.157 76.625 277.604 76.8319 276.235 77.2654L276.839 79.1721C277.97 78.8139 279.312 78.625 280.881 78.625V76.625ZM276.245 77.2623C274.966 77.6526 273.757 78.1312 272.621 78.6993L273.515 80.4882C274.546 79.973 275.65 79.5349 276.829 79.1752L276.245 77.2623ZM272.621 78.6993C272.401 78.8091 272.242 78.8821 272.136 78.9255C272.082 78.9473 272.056 78.9559 272.051 78.9575C272.048 78.9581 272.06 78.9545 272.082 78.9502C272.101 78.9467 272.152 78.9375 272.224 78.9375V80.9375C272.399 80.9375 272.549 80.8958 272.621 80.8746C272.711 80.8475 272.804 80.8131 272.891 80.7777C273.066 80.7064 273.276 80.6076 273.515 80.4882L272.621 78.6993ZM272.224 78.9375C272.34 78.9375 272.391 78.9788 272.359 78.9585C272.325 78.9372 272.248 78.8776 272.13 78.7446L270.631 80.0679C270.979 80.4632 271.517 80.9375 272.224 80.9375V78.9375ZM272.17 78.7923C271.922 78.4732 271.696 78.113 271.494 77.709L269.705 78.6035C269.961 79.1161 270.256 79.5893 270.591 80.0202L272.17 78.7923ZM271.51 77.7424C271.416 77.536 271.355 77.3785 271.319 77.2642C271.28 77.1382 271.287 77.1138 271.287 77.1562H269.287C269.287 77.6041 269.482 78.1158 269.689 78.5701L271.51 77.7424ZM271.287 77.1562C271.287 77.272 271.228 77.2556 271.383 77.0912C271.533 76.9316 271.806 76.718 272.254 76.4609L271.257 74.7266C270.726 75.032 270.265 75.3601 269.925 75.7213C269.59 76.0777 269.287 76.5614 269.287 77.1562H271.287ZM272.246 76.4653C273.136 75.9644 274.341 75.5233 275.889 75.1612L275.434 73.2138C273.774 73.6017 272.375 74.0981 271.265 74.7222L272.246 76.4653ZM275.889 75.1612C277.414 74.8047 279.015 74.625 280.693 74.625V72.625C278.871 72.625 277.117 72.8203 275.434 73.2138L275.889 75.1612ZM280.693 74.625C284.039 74.625 286.487 75.3576 288.165 76.6896L289.408 75.1229C287.254 73.4132 284.305 72.625 280.693 72.625V74.625ZM288.165 76.6896C289.811 77.9956 290.662 79.8247 290.662 82.3125H292.662C292.662 79.3003 291.596 76.8586 289.408 75.1229L288.165 76.6896ZM290.662 82.3125V94.7812H292.662V82.3125H290.662ZM290.662 94.7812C290.662 97.2048 290.765 99.0365 290.992 100.22L292.956 99.8424C292.767 98.8593 292.662 97.191 292.662 94.7812H290.662ZM290.997 100.242C291.111 100.771 291.195 101.176 291.251 101.458C291.279 101.6 291.298 101.706 291.31 101.778C291.328 101.884 291.318 101.854 291.318 101.781H293.318C293.318 101.657 293.294 101.514 293.283 101.449C293.266 101.349 293.243 101.223 293.213 101.073C293.154 100.772 293.067 100.354 292.952 99.8204L290.997 100.242ZM291.318 101.781C291.318 101.763 291.322 101.73 291.339 101.693C291.355 101.658 291.371 101.643 291.367 101.647C291.361 101.653 291.333 101.677 291.266 101.711C291.2 101.745 291.104 101.783 290.973 101.822L291.538 103.741C291.971 103.613 292.402 103.419 292.738 103.103C293.102 102.761 293.318 102.304 293.318 101.781H291.318ZM290.992 101.816C290.376 101.985 289.819 102.062 289.318 102.062V104.062C290.025 104.062 290.76 103.953 291.519 103.746L290.992 101.816ZM289.318 102.062C289.288 102.062 289.275 102.058 289.272 102.058C289.271 102.057 289.268 102.057 289.262 102.052C289.247 102.04 289.184 101.985 289.107 101.813L287.279 102.625C287.452 103.015 287.702 103.381 288.062 103.652C288.434 103.931 288.867 104.062 289.318 104.062V102.062ZM289.119 101.841C288.923 101.359 288.708 100.613 288.483 99.5704L286.528 99.9921C286.761 101.075 287.005 101.953 287.267 102.596L289.119 101.841ZM288.486 99.5851L288.361 98.9601L286.4 99.3524L286.525 99.9774L288.486 99.5851ZM286.638 98.4866C285.58 99.6594 284.332 100.592 282.885 101.286L283.751 103.089C285.429 102.283 286.889 101.195 288.123 99.8259L286.638 98.4866ZM282.881 101.288C281.495 101.962 279.888 102.312 278.037 102.312V104.312C280.144 104.312 282.058 103.913 283.755 103.087L282.881 101.288ZM278.287 100.281C280.239 100.281 281.967 99.9264 283.433 99.1699L282.516 97.3926C281.398 97.9695 280.001 98.2812 278.287 98.2812V100.281ZM283.433 99.1699C284.817 98.4557 286.219 97.4542 287.641 96.183L286.308 94.692C284.98 95.8791 283.715 96.7734 282.516 97.3926L283.433 99.1699ZM287.974 95.4375V88.875H285.974V95.4375H287.974ZM286.967 87.875C284.197 87.896 281.897 88.0114 280.076 88.2256L280.31 90.2119C282.031 90.0095 284.251 89.8957 286.982 89.875L286.967 87.875ZM280.076 88.2256C278.174 88.4494 276.474 89.0248 274.997 89.9705L276.076 91.6545C277.267 90.8919 278.67 90.4048 280.31 90.2119L280.076 88.2256ZM275.007 89.9645C273.34 91.0064 272.537 92.6548 272.537 94.7188H274.537C274.537 93.2411 275.067 92.2853 276.067 91.6605L275.007 89.9645ZM272.537 94.7188C272.537 96.3748 272.984 97.7985 274.017 98.8321L275.431 97.4179C274.882 96.8681 274.537 96.021 274.537 94.7188H272.537ZM274.036 98.8505C275.097 99.8571 276.57 100.281 278.287 100.281V98.2812C276.878 98.2812 275.976 97.9346 275.413 97.3995L274.036 98.8505ZM300.227 102.812L299.72 103.674L299.739 103.686L299.759 103.696L300.227 102.812ZM299.352 77.1562L298.374 77.3632L298.374 77.3671L299.352 77.1562ZM300.039 74.4062L300.303 75.371L300.312 75.3684L300.322 75.3656L300.039 74.4062ZM303.727 76.6562L302.743 76.832L302.746 76.849L302.749 76.8658L303.727 76.6562ZM303.977 77.7812L303.007 78.0238L303.466 79.8611L304.724 78.4456L303.977 77.7812ZM308.008 74.7188L307.581 73.8148L307.576 73.817L308.008 74.7188ZM319.289 76.0312L318.578 76.7338L318.587 76.743L319.289 76.0312ZM321.164 102.812L321.632 103.696L321.652 103.686L321.672 103.674L321.164 102.812ZM317.571 102.812L317.064 103.674L317.083 103.686L317.103 103.696L317.571 102.812ZM315.539 79.0938L314.84 79.8084L314.848 79.8159L314.856 79.8233L315.539 79.0938ZM307.602 78.7188L308.084 79.595L308.089 79.5922L307.602 78.7188ZM304.352 81.5625L303.555 80.9581L303.352 81.2261V81.5625H304.352ZM303.821 102.812L304.289 103.696L304.308 103.686L304.328 103.674L303.821 102.812ZM301.946 102.094C301.187 102.094 300.822 101.996 300.695 101.929L299.759 103.696C300.34 104.004 301.121 104.094 301.946 104.094V102.094ZM300.734 101.951C300.708 101.935 300.697 101.925 300.695 101.923C300.693 101.921 300.695 101.923 300.699 101.929C300.702 101.935 300.702 101.937 300.701 101.932C300.699 101.926 300.696 101.908 300.696 101.875H298.696C298.696 102.64 299.055 103.283 299.72 103.674L300.734 101.951ZM300.696 101.875V82.375H298.696V101.875H300.696ZM300.696 82.375C300.696 79.952 300.583 78.1201 300.33 76.9454L298.374 77.3671C298.579 78.3174 298.696 79.9647 298.696 82.375H300.696ZM300.33 76.9493C300.216 76.4095 300.132 75.9971 300.076 75.709C300.048 75.5642 300.029 75.4568 300.017 75.3829C299.999 75.2747 300.008 75.3036 300.008 75.375H298.008C298.008 75.4985 298.032 75.6407 298.043 75.7069C298.059 75.8075 298.083 75.9358 298.112 76.0879C298.171 76.3936 298.259 76.8196 298.374 77.3632L300.33 76.9493ZM300.008 75.375C300.008 75.3887 300.005 75.4209 299.988 75.4594C299.971 75.4972 299.952 75.5163 299.951 75.5179C299.951 75.5179 299.956 75.5129 299.969 75.504C299.983 75.4951 300.003 75.4829 300.032 75.4685C300.091 75.4391 300.179 75.4048 300.303 75.371L299.776 73.4415C299.349 73.5581 298.918 73.7441 298.581 74.0602C298.215 74.4045 298.008 74.8608 298.008 75.375H300.008ZM300.322 75.3656C300.954 75.1795 301.525 75.0938 302.039 75.0938V73.0938C301.304 73.0938 300.541 73.2163 299.757 73.4469L300.322 75.3656ZM302.039 75.0938C302.079 75.0938 302.1 75.0989 302.108 75.1015C302.116 75.1039 302.122 75.1067 302.13 75.1125C302.146 75.1241 302.208 75.177 302.282 75.3436L304.11 74.5314C303.934 74.1355 303.678 73.7665 303.309 73.4969C302.929 73.2198 302.491 73.0938 302.039 73.0938V75.0938ZM302.282 75.3436C302.5 75.8353 302.653 76.3311 302.743 76.832L304.711 76.4805C304.593 75.8148 304.391 75.1647 304.11 74.5314L302.282 75.3436ZM302.749 76.8658C302.873 77.4446 302.96 77.8374 303.007 78.0238L304.947 77.5387C304.91 77.3918 304.831 77.0346 304.705 76.4467L302.749 76.8658ZM304.724 78.4456C305.807 77.2282 307.044 76.2899 308.441 75.6205L307.576 73.817C305.93 74.606 304.481 75.7093 303.23 77.1169L304.724 78.4456ZM308.436 75.6227C309.856 74.9509 311.263 74.625 312.664 74.625V72.625C310.941 72.625 309.244 73.0282 307.581 73.8148L308.436 75.6227ZM312.664 74.625C315.303 74.625 317.228 75.3661 318.578 76.7337L320.001 75.3288C318.184 73.4881 315.693 72.625 312.664 72.625V74.625ZM318.587 76.743C319.957 78.0956 320.696 80.0018 320.696 82.5938H322.696C322.696 79.6023 321.83 77.1335 319.992 75.3195L318.587 76.743ZM320.696 82.5938V101.875H322.696V82.5938H320.696ZM320.696 101.875C320.696 101.908 320.692 101.926 320.691 101.932C320.69 101.937 320.69 101.935 320.693 101.929C320.696 101.923 320.699 101.921 320.697 101.923C320.694 101.925 320.683 101.935 320.657 101.951L321.672 103.674C322.336 103.283 322.696 102.64 322.696 101.875H320.696ZM320.697 101.929C320.567 101.998 320.209 102.094 319.477 102.094V104.094C320.287 104.094 321.054 104.002 321.632 103.696L320.697 101.929ZM319.477 102.094H319.227V104.094H319.477V102.094ZM319.227 102.094C318.521 102.094 318.171 101.999 318.039 101.929L317.103 103.696C317.679 104.001 318.433 104.094 319.227 104.094V102.094ZM318.078 101.951C318.052 101.935 318.041 101.925 318.038 101.923C318.036 101.921 318.039 101.923 318.042 101.929C318.046 101.935 318.046 101.937 318.044 101.932C318.043 101.926 318.039 101.908 318.039 101.875H316.039C316.039 102.64 316.399 103.283 317.064 103.674L318.078 101.951ZM318.039 101.875V83.0625H316.039V101.875H318.039ZM318.039 83.0625C318.039 81.1505 317.473 79.5353 316.223 78.3642L314.856 79.8233C315.606 80.5272 316.039 81.5579 316.039 83.0625H318.039ZM316.239 78.3791C315.021 77.1868 313.353 76.6562 311.383 76.6562V78.6562C312.997 78.6562 314.1 79.084 314.84 79.8084L316.239 78.3791ZM311.383 76.6562C309.937 76.6562 308.51 77.0677 307.115 77.8453L308.089 79.5922C309.235 78.9532 310.33 78.6562 311.383 78.6562V76.6562ZM307.12 77.8425C305.74 78.6018 304.551 79.6453 303.555 80.9581L305.149 82.1669C305.986 81.063 306.964 80.2107 308.084 79.595L307.12 77.8425ZM303.352 81.5625V101.875H305.352V81.5625H303.352ZM303.352 101.875C303.352 101.908 303.348 101.926 303.347 101.932C303.346 101.937 303.346 101.935 303.349 101.929C303.353 101.923 303.355 101.921 303.353 101.923C303.35 101.925 303.339 101.935 303.314 101.951L304.328 103.674C304.993 103.283 305.352 102.64 305.352 101.875H303.352ZM303.353 101.929C303.22 101.999 302.87 102.094 302.164 102.094V104.094C302.959 104.094 303.713 104.001 304.289 103.696L303.353 101.929ZM302.164 102.094H301.946V104.094H302.164V102.094ZM330.886 99.7812L330.16 100.469L330.166 100.476L330.886 99.7812ZM344.73 74L344.54 74.9818L344.547 74.9833L344.555 74.9846L344.73 74ZM348.73 77.3438L347.813 76.945L347.805 76.9621L347.799 76.9794L348.73 77.3438ZM348.011 78.625L347.222 78.011L347.217 78.0175L348.011 78.625ZM346.98 79.0938L346.533 79.9882L346.596 80.02L346.664 80.0424L346.98 79.0938ZM346.636 78.9375L346.213 79.8437L346.239 79.8556L346.265 79.866L346.636 78.9375ZM334.636 80.1562L335.403 80.7983L335.407 80.7936L334.636 80.1562ZM333.386 94.5938L332.441 94.9209L332.442 94.9246L333.386 94.5938ZM336.105 98.1562L335.58 99.0074L335.586 99.0113L336.105 98.1562ZM347.417 97.875L347.2 96.8988L347.074 96.927L346.958 96.9866L347.417 97.875ZM347.824 97.75L348.271 98.6444L348.305 98.6273L348.338 98.6075L347.824 97.75ZM349.574 99.4062L348.663 99.8201L348.671 99.8369L348.679 99.8535L349.574 99.4062ZM345.511 102.906L345.71 103.886L345.722 103.884L345.511 102.906ZM341.199 102.312C336.753 102.312 333.622 101.177 331.606 99.087L330.166 100.476C332.692 103.094 336.436 104.312 341.199 104.312V102.312ZM331.612 99.0935C329.618 96.9891 328.511 93.4854 328.511 88.3438H326.511C326.511 93.7021 327.654 97.8234 330.16 100.469L331.612 99.0935ZM328.511 88.3438C328.511 83.1553 329.746 79.7206 331.958 77.746L330.626 76.254C327.797 78.7794 326.511 82.9072 326.511 88.3438H328.511ZM331.958 77.746C334.275 75.678 337.165 74.625 340.699 74.625V72.625C336.732 72.625 333.351 73.822 330.626 76.254L331.958 77.746ZM340.699 74.625C342.034 74.625 343.314 74.7446 344.54 74.9818L344.92 73.0182C343.562 72.7554 342.154 72.625 340.699 72.625V74.625ZM344.555 74.9846C345.793 75.2043 346.733 75.4944 347.408 75.8319L348.302 74.0431C347.394 73.5889 346.25 73.2541 344.904 73.0154L344.555 74.9846ZM347.408 75.8319C347.749 76.0029 347.933 76.1442 348.02 76.2356C348.099 76.3182 348.042 76.2974 348.042 76.1875H350.042C350.042 75.6401 349.788 75.1922 349.47 74.8581C349.161 74.5329 348.752 74.2679 348.302 74.0431L347.408 75.8319ZM348.042 76.1875C348.042 76.2732 348.003 76.5077 347.813 76.945L349.647 77.7425C349.873 77.2214 350.042 76.6852 350.042 76.1875H348.042ZM347.799 76.9794C347.643 77.3763 347.45 77.718 347.222 78.0111L348.8 79.2389C349.156 78.782 349.441 78.2695 349.661 77.7081L347.799 76.9794ZM347.217 78.0175C347.169 78.0798 347.129 78.1252 347.098 78.1574C347.066 78.1898 347.047 78.204 347.042 78.2074C347.03 78.216 347.109 78.1562 347.261 78.1562V80.1562C347.997 80.1562 348.509 79.6194 348.805 79.2325L347.217 78.0175ZM347.261 78.1562C347.281 78.1562 347.297 78.1571 347.31 78.158C347.323 78.159 347.333 78.1601 347.34 78.1611C347.355 78.163 347.362 78.1647 347.361 78.1644C347.36 78.1642 347.354 78.1629 347.342 78.1596C347.331 78.1563 347.316 78.1516 347.296 78.1451L346.664 80.0424C346.803 80.089 347.027 80.1562 347.261 80.1562V78.1562ZM347.427 78.1993C347.283 78.1273 347.143 78.0631 347.007 78.009L346.265 79.866C346.338 79.8952 346.427 79.9352 346.533 79.9882L347.427 78.1993ZM347.059 78.0313C345.045 77.0916 342.879 76.625 340.574 76.625V78.625C342.601 78.625 344.477 79.0334 346.213 79.8437L347.059 78.0313ZM340.574 76.625C337.769 76.625 335.485 77.5615 333.865 79.5189L335.407 80.7936C336.579 79.376 338.253 78.625 340.574 78.625V76.625ZM333.869 79.5142C332.248 81.4501 331.542 84.427 331.542 88.2188H333.542C333.542 84.5939 334.232 82.1957 335.403 80.7983L333.869 79.5142ZM331.542 88.2188C331.542 90.9028 331.828 93.1506 332.441 94.9209L334.331 94.2666C333.819 92.7869 333.542 90.7847 333.542 88.2188H331.542ZM332.442 94.9246C333.068 96.7093 334.105 98.0978 335.58 99.0074L336.63 97.3051C335.605 96.6731 334.829 95.6865 334.33 94.2629L332.442 94.9246ZM335.586 99.0113C337.065 99.9085 338.952 100.312 341.167 100.312V98.3125C339.174 98.3125 337.686 97.9457 336.623 97.3012L335.586 99.0113ZM341.167 100.312C343.622 100.312 345.866 99.8027 347.876 98.7634L346.958 96.9866C345.261 97.864 343.338 98.3125 341.167 98.3125V100.312ZM347.634 98.8512C347.836 98.8064 348.072 98.7438 348.271 98.6444L347.376 96.8556C347.402 96.8426 347.405 96.8447 347.365 96.8567C347.33 96.8675 347.277 96.8819 347.2 96.8988L347.634 98.8512ZM348.338 98.6075C348.369 98.5887 348.371 98.5899 348.35 98.5988C348.339 98.6036 348.31 98.6154 348.268 98.6269C348.23 98.6373 348.15 98.6562 348.042 98.6562V96.6562C347.813 96.6562 347.631 96.7311 347.562 96.7605C347.469 96.8007 347.382 96.8488 347.309 96.8925L348.338 98.6075ZM348.042 98.6562C347.894 98.6562 347.822 98.5992 347.847 98.616C347.857 98.6226 347.88 98.6403 347.917 98.6756C347.954 98.7107 347.999 98.7588 348.052 98.8232L349.595 97.5518C349.284 97.1734 348.762 96.6562 348.042 96.6562V98.6562ZM348.052 98.8232C348.282 99.1036 348.488 99.4338 348.663 99.8201L350.484 98.9924C350.243 98.4621 349.948 97.9798 349.595 97.5518L348.052 98.8232ZM348.679 99.8535C348.777 100.05 348.84 100.205 348.877 100.323C348.896 100.381 348.906 100.425 348.912 100.457C348.917 100.488 348.917 100.502 348.917 100.5H350.917C350.917 99.9898 350.715 99.4535 350.468 98.959L348.679 99.8535ZM348.917 100.5C348.917 100.395 348.969 100.385 348.879 100.485C348.783 100.591 348.591 100.747 348.246 100.937L349.213 102.688C349.66 102.441 350.061 102.159 350.362 101.827C350.667 101.49 350.917 101.042 350.917 100.5H348.917ZM348.246 100.937C347.573 101.309 346.604 101.648 345.3 101.929L345.722 103.884C347.126 103.581 348.304 103.191 349.213 102.688L348.246 100.937ZM345.312 101.926C344.052 102.182 342.682 102.312 341.199 102.312V104.312C342.798 104.312 344.303 104.172 345.71 103.886L345.312 101.926ZM357.42 65.9375C356.739 65.9375 356.387 65.8384 356.237 65.7563C356.178 65.7236 356.181 65.7101 356.195 65.7332C356.21 65.7582 356.201 65.7651 356.201 65.7188H354.201C354.201 66.0787 354.285 66.4411 354.485 66.7707C354.684 67.0985 354.964 67.3389 355.274 67.5093C355.865 67.8335 356.622 67.9375 357.42 67.9375V65.9375ZM356.201 65.7188V62.4375H354.201V65.7188H356.201ZM356.201 62.4375C356.201 62.3912 356.21 62.3981 356.195 62.4231C356.181 62.4461 356.178 62.4326 356.237 62.3999C356.387 62.3179 356.739 62.2188 357.42 62.2188V60.2188C356.622 60.2188 355.865 60.3227 355.274 60.647C354.964 60.8174 354.684 61.0578 354.485 61.3855C354.285 61.7152 354.201 62.0776 354.201 62.4375H356.201ZM357.42 62.2188H358.076V60.2188H357.42V62.2188ZM358.076 62.2188C358.769 62.2188 359.131 62.3181 359.287 62.4027C359.351 62.4369 359.348 62.4516 359.334 62.4284C359.318 62.4026 359.326 62.3938 359.326 62.4375H361.326C361.326 62.075 361.241 61.7107 361.037 61.3802C360.835 61.0523 360.552 60.8131 360.24 60.6441C359.646 60.3225 358.884 60.2188 358.076 60.2188V62.2188ZM359.326 62.4375V65.7188H361.326V62.4375H359.326ZM359.326 65.7188C359.326 65.7625 359.318 65.7536 359.334 65.7279C359.348 65.7046 359.351 65.7193 359.287 65.7535C359.131 65.8381 358.769 65.9375 358.076 65.9375V67.9375C358.884 67.9375 359.646 67.8337 360.24 67.5121C360.552 67.3432 360.835 67.104 361.037 66.7761C361.241 66.4456 361.326 66.0813 361.326 65.7188H359.326ZM358.076 65.9375H357.42V67.9375H358.076V65.9375ZM357.639 102.094C356.958 102.094 356.605 101.995 356.456 101.913C356.397 101.88 356.4 101.866 356.414 101.889C356.429 101.914 356.42 101.921 356.42 101.875H354.42C354.42 102.235 354.504 102.597 354.704 102.927C354.903 103.255 355.183 103.495 355.493 103.666C356.083 103.99 356.84 104.094 357.639 104.094V102.094ZM356.42 101.875V75.0625H354.42V101.875H356.42ZM356.42 75.0625C356.42 75.0162 356.429 75.0231 356.414 75.0481C356.4 75.0711 356.397 75.0576 356.456 75.0249C356.605 74.9429 356.958 74.8438 357.639 74.8438V72.8438C356.84 72.8438 356.083 72.9477 355.493 73.272C355.183 73.4424 354.903 73.6828 354.704 74.0105C354.504 74.3402 354.42 74.7026 354.42 75.0625H356.42ZM357.639 74.8438H357.857V72.8438H357.639V74.8438ZM357.857 74.8438C358.55 74.8438 358.913 74.9431 359.069 75.0277C359.132 75.0619 359.13 75.0766 359.115 75.0534C359.099 75.0276 359.107 75.0188 359.107 75.0625H361.107C361.107 74.7 361.022 74.3357 360.819 74.0052C360.617 73.6773 360.333 73.4381 360.021 73.2691C359.427 72.9475 358.665 72.8438 357.857 72.8438V74.8438ZM359.107 75.0625V101.875H361.107V75.0625H359.107ZM359.107 101.875C359.107 101.919 359.099 101.91 359.115 101.884C359.13 101.861 359.132 101.876 359.069 101.91C358.913 101.994 358.55 102.094 357.857 102.094V104.094C358.665 104.094 359.427 103.99 360.021 103.668C360.333 103.499 360.617 103.26 360.819 102.932C361.022 102.602 361.107 102.238 361.107 101.875H359.107ZM357.857 102.094H357.639V104.094H357.857V102.094ZM369.266 88.4688L369.902 89.2407L369.908 89.2362L369.266 88.4688ZM375.735 85.625L375.897 86.6118L375.904 86.6107L375.735 85.625ZM385.048 84.875L385.065 85.8749L386.048 85.858V84.875H385.048ZM383.61 78.9062L382.937 79.6454L382.945 79.6533L382.954 79.6609L383.61 78.9062ZM374.61 78.2188L374.902 79.1753L374.912 79.1721L374.61 78.2188ZM371.141 79.5938L370.694 78.6993L371.141 79.5938ZM369.454 79.4062L368.665 80.0202L368.684 80.0446L368.704 80.0679L369.454 79.4062ZM368.673 78.1562L367.762 78.5701L367.77 78.5869L367.778 78.6035L368.673 78.1562ZM369.829 75.5938L369.339 74.7221L369.331 74.7266L369.829 75.5938ZM390.048 100.031L389.066 100.22L389.068 100.231L389.07 100.242L390.048 100.031ZM389.329 102.781L389.592 103.746L389.602 103.743L389.611 103.741L389.329 102.781ZM386.266 102.219L385.34 102.596L385.346 102.611L385.353 102.625L386.266 102.219ZM385.579 99.7812L384.598 99.9774L384.6 99.9847L384.601 99.9921L385.579 99.7812ZM385.454 99.1562L386.435 98.9601L386.044 97.0083L384.711 98.4866L385.454 99.1562ZM381.391 102.188L380.959 101.286L380.954 101.288L381.391 102.188ZM381.048 98.2812L380.589 97.3926L381.048 98.2812ZM385.048 95.4375L385.714 96.183L386.048 95.8849V95.4375H385.048ZM385.048 88.875H386.048V87.8674L385.04 87.875L385.048 88.875ZM373.61 90.8125L374.14 91.6606L374.15 91.6545L373.61 90.8125ZM372.798 98.125L372.091 98.8321L372.1 98.8414L372.109 98.8505L372.798 98.125ZM376.11 102.312C373.442 102.312 371.389 101.658 369.859 100.437L368.612 102.001C370.581 103.572 373.112 104.312 376.11 104.312V102.312ZM369.859 100.437C368.401 99.2741 367.61 97.5224 367.61 95H365.61C365.61 97.9776 366.57 100.372 368.612 102.001L369.859 100.437ZM367.61 95C367.61 92.3178 368.421 90.4608 369.902 89.2407L368.631 87.6968C366.571 89.3934 365.61 91.8906 365.61 95H367.61ZM369.908 89.2362C371.526 87.8847 373.511 87.003 375.897 86.6118L375.573 84.6382C372.876 85.0803 370.549 86.0945 368.625 87.7013L369.908 89.2362ZM375.904 86.6107C378.401 86.1844 381.451 85.9368 385.065 85.8749L385.031 83.8751C381.353 83.9382 378.195 84.1906 375.567 84.6393L375.904 86.6107ZM386.048 84.875V82.25H384.048V84.875H386.048ZM386.048 82.25C386.048 80.597 385.466 79.1951 384.266 78.1516L382.954 79.6609C383.671 80.2841 384.048 81.1114 384.048 82.25H386.048ZM384.284 78.1671C383.069 77.0607 381.207 76.625 378.954 76.625V78.625C381.034 78.625 382.276 79.0435 382.937 79.6454L384.284 78.1671ZM378.954 76.625C377.231 76.625 375.677 76.8319 374.308 77.2654L374.912 79.1721C376.043 78.8139 377.386 78.625 378.954 78.625V76.625ZM374.318 77.2623C373.039 77.6526 371.831 78.1312 370.694 78.6993L371.589 80.4882C372.619 79.973 373.723 79.5349 374.902 79.1752L374.318 77.2623ZM370.694 78.6993C370.475 78.8091 370.316 78.8821 370.21 78.9255C370.156 78.9473 370.13 78.9559 370.124 78.9575C370.122 78.9581 370.133 78.9545 370.156 78.9502C370.174 78.9467 370.226 78.9375 370.298 78.9375V80.9375C370.473 80.9375 370.622 80.8958 370.694 80.8746C370.785 80.8475 370.877 80.8131 370.964 80.7777C371.139 80.7064 371.35 80.6076 371.589 80.4882L370.694 78.6993ZM370.298 78.9375C370.414 78.9375 370.464 78.9788 370.432 78.9585C370.398 78.9372 370.321 78.8776 370.204 78.7446L368.704 80.0679C369.053 80.4632 369.59 80.9375 370.298 80.9375V78.9375ZM370.243 78.7923C369.995 78.4732 369.769 78.113 369.567 77.709L367.778 78.6035C368.035 79.1161 368.33 79.5893 368.665 80.0202L370.243 78.7923ZM369.583 77.7424C369.489 77.536 369.429 77.3785 369.393 77.2642C369.353 77.1382 369.36 77.1138 369.36 77.1562H367.36C367.36 77.6041 367.556 78.1158 367.762 78.5701L369.583 77.7424ZM369.36 77.1562C369.36 77.272 369.301 77.2556 369.456 77.0912C369.606 76.9316 369.88 76.718 370.327 76.4609L369.331 74.7266C368.799 75.032 368.338 75.3601 367.999 75.7213C367.664 76.0777 367.36 76.5614 367.36 77.1562H369.36ZM370.319 76.4653C371.21 75.9644 372.414 75.5233 373.963 75.1612L373.508 73.2138C371.848 73.6017 370.448 74.0981 369.339 74.7222L370.319 76.4653ZM373.963 75.1612C375.488 74.8047 377.088 74.625 378.766 74.625V72.625C376.945 72.625 375.191 72.8203 373.508 73.2138L373.963 75.1612ZM378.766 74.625C382.113 74.625 384.56 75.3576 386.239 76.6896L387.482 75.1229C385.327 73.4132 382.378 72.625 378.766 72.625V74.625ZM386.239 76.6896C387.885 77.9956 388.735 79.8247 388.735 82.3125H390.735C390.735 79.3003 389.669 76.8586 387.482 75.1229L386.239 76.6896ZM388.735 82.3125V94.7812H390.735V82.3125H388.735ZM388.735 94.7812C388.735 97.2048 388.838 99.0365 389.066 100.22L391.03 99.8424C390.841 98.8593 390.735 97.191 390.735 94.7812H388.735ZM389.07 100.242C389.184 100.771 389.269 101.176 389.324 101.458C389.352 101.6 389.372 101.706 389.384 101.778C389.401 101.884 389.391 101.854 389.391 101.781H391.391C391.391 101.657 391.367 101.514 391.356 101.449C391.34 101.349 391.316 101.223 391.287 101.073C391.228 100.772 391.14 100.354 391.025 99.8204L389.07 100.242ZM389.391 101.781C389.391 101.763 389.396 101.73 389.412 101.693C389.428 101.658 389.445 101.643 389.441 101.647C389.434 101.653 389.406 101.677 389.34 101.711C389.273 101.745 389.178 101.783 389.047 101.822L389.611 103.741C390.045 103.613 390.476 103.419 390.811 103.103C391.175 102.761 391.391 102.304 391.391 101.781H389.391ZM389.066 101.816C388.449 101.985 387.893 102.062 387.391 102.062V104.062C388.099 104.062 388.834 103.953 389.592 103.746L389.066 101.816ZM387.391 102.062C387.361 102.062 387.348 102.058 387.346 102.058C387.344 102.057 387.342 102.057 387.335 102.052C387.32 102.04 387.257 101.985 387.18 101.813L385.353 102.625C385.526 103.015 385.775 103.381 386.135 103.652C386.508 103.931 386.94 104.062 387.391 104.062V102.062ZM387.193 101.841C386.996 101.359 386.781 100.613 386.557 99.5704L384.601 99.9921C384.835 101.075 385.079 101.953 385.34 102.596L387.193 101.841ZM386.56 99.5851L386.435 98.9601L384.473 99.3524L384.598 99.9774L386.56 99.5851ZM384.711 98.4866C383.654 99.6594 382.405 100.592 380.959 101.286L381.824 103.089C383.503 102.283 384.962 101.195 386.197 99.8259L384.711 98.4866ZM380.954 101.288C379.568 101.962 377.961 102.312 376.11 102.312V104.312C378.218 104.312 380.131 103.913 381.829 103.087L380.954 101.288ZM376.36 100.281C378.312 100.281 380.041 99.9264 381.506 99.1699L380.589 97.3926C379.471 97.9695 378.075 98.2812 376.36 98.2812V100.281ZM381.506 99.1699C382.89 98.4557 384.292 97.4542 385.714 96.183L384.381 94.692C383.053 95.8791 381.789 96.7734 380.589 97.3926L381.506 99.1699ZM386.048 95.4375V88.875H384.048V95.4375H386.048ZM385.04 87.875C382.271 87.896 379.971 88.0114 378.15 88.2256L378.383 90.2119C380.104 90.0095 382.325 89.8957 385.055 89.875L385.04 87.875ZM378.15 88.2256C376.247 88.4494 374.547 89.0248 373.071 89.9705L374.15 91.6545C375.34 90.8919 376.744 90.4048 378.383 90.2119L378.15 88.2256ZM373.08 89.9645C371.413 91.0064 370.61 92.6548 370.61 94.7188H372.61C372.61 93.2411 373.141 92.2853 374.14 91.6605L373.08 89.9645ZM370.61 94.7188C370.61 96.3748 371.057 97.7985 372.091 98.8321L373.505 97.4179C372.955 96.8681 372.61 96.021 372.61 94.7188H370.61ZM372.109 98.8505C373.171 99.8571 374.644 100.281 376.36 100.281V98.2812C374.952 98.2812 374.05 97.9346 373.486 97.3995L372.109 98.8505ZM399.738 101.625L399.127 102.417L399.738 101.625ZM403.019 98.4062L402.275 99.0738L403.019 98.4062ZM408.426 100.062L407.471 100.361L407.475 100.374L407.48 100.388L408.426 100.062ZM404.707 102.312C403.072 102.312 401.631 101.822 400.349 100.833L399.127 102.417C400.762 103.678 402.633 104.312 404.707 104.312V102.312ZM400.349 100.833C399.247 99.9829 398.551 98.3738 398.551 95.6562H396.551C396.551 98.647 397.313 101.017 399.127 102.417L400.349 100.833ZM398.551 95.6562V62.4375H396.551V95.6562H398.551ZM398.551 62.4375C398.551 62.3912 398.559 62.3981 398.544 62.4231C398.53 62.4461 398.527 62.4326 398.587 62.3999C398.736 62.3179 399.088 62.2188 399.769 62.2188V60.2188C398.971 60.2188 398.214 60.3227 397.624 60.647C397.314 60.8174 397.033 61.0578 396.834 61.3855C396.634 61.7152 396.551 62.0776 396.551 62.4375H398.551ZM399.769 62.2188H400.019V60.2188H399.769V62.2188ZM400.019 62.2188C400.688 62.2188 401.031 62.3176 401.173 62.397C401.229 62.4283 401.226 62.4405 401.212 62.4177C401.197 62.3936 401.207 62.3886 401.207 62.4375H403.207C403.207 62.0801 403.125 61.7197 402.928 61.3909C402.732 61.0634 402.455 60.8217 402.147 60.6499C401.56 60.323 400.809 60.2188 400.019 60.2188V62.2188ZM401.207 62.4375V95.2188H403.207V62.4375H401.207ZM401.207 95.2188C401.207 96.7959 401.475 98.1819 402.275 99.0738L403.764 97.7387C403.48 97.4222 403.207 96.6833 403.207 95.2188H401.207ZM402.275 99.0738C403.032 99.9182 404.047 100.312 405.207 100.312V98.3125C404.533 98.3125 404.09 98.1026 403.764 97.7387L402.275 99.0738ZM405.207 100.312C405.923 100.312 406.543 100.27 407.038 100.166L406.626 98.209C406.328 98.2715 405.866 98.3125 405.207 98.3125V100.312ZM407.038 100.166C407.227 100.126 407.374 100.098 407.482 100.081C407.604 100.062 407.635 100.062 407.613 100.062V98.0625C407.365 98.0625 406.998 98.1305 406.626 98.209L407.038 100.166ZM407.613 100.062C407.521 100.062 407.435 100.038 407.368 100.001C407.307 99.967 407.284 99.9359 407.29 99.9431C407.296 99.9508 407.321 99.9836 407.356 100.057C407.39 100.129 407.43 100.229 407.471 100.361L409.38 99.7642C409.259 99.3761 409.092 98.9895 408.842 98.6819C408.576 98.3545 408.164 98.0625 407.613 98.0625V100.062ZM407.48 100.388C407.697 101.018 407.769 101.425 407.769 101.656H409.769C409.769 101.095 409.613 100.44 409.371 99.7374L407.48 100.388ZM407.769 101.656C407.769 101.71 407.759 101.726 407.741 101.748C407.709 101.787 407.614 101.875 407.376 101.972C406.881 102.174 406.023 102.312 404.707 102.312V104.312C406.099 104.312 407.272 104.175 408.131 103.824C408.57 103.645 408.983 103.389 409.29 103.014C409.61 102.622 409.769 102.155 409.769 101.656H407.769ZM409.585 102.875L409.178 103.789L409.2 103.798L409.222 103.807L409.585 102.875ZM409.178 101.406L408.237 101.067L408.227 101.095L408.219 101.124L409.178 101.406ZM422.335 64.875L423.275 65.2139L423.28 65.201L422.335 64.875ZM428.397 64.875L427.452 65.201L427.456 65.2136L428.397 64.875ZM441.553 101.438L440.612 101.776L440.626 101.814L440.643 101.851L441.553 101.438ZM436.647 102.219L435.705 102.554L435.705 102.555L436.647 102.219ZM433.397 93.0938L434.339 92.7582L434.102 92.0938H433.397V93.0938ZM417.085 93.0938V92.0938H416.375L416.14 92.764L417.085 93.0938ZM413.897 102.219L412.953 101.889L412.949 101.901L412.945 101.913L413.897 102.219ZM431.897 88.875V89.875H433.309L432.84 88.5433L431.897 88.875ZM426.085 72.3438L427.028 72.012L427.024 72.002L426.085 72.3438ZM425.678 70.7812L424.694 70.957L425.678 70.7812ZM425.397 69.0938L426.385 68.9417L426.255 68.0938H425.397V69.0938ZM425.272 69.0938V68.0938H424.435L424.288 68.9175L425.272 69.0938ZM424.428 72.3438L423.502 71.968L423.493 71.9899L423.485 72.012L424.428 72.3438ZM418.616 88.875L417.672 88.5433L417.204 89.875H418.616V88.875ZM411.397 102.094C410.584 102.094 410.138 102.017 409.947 101.943L409.222 103.807C409.781 104.024 410.544 104.094 411.397 104.094V102.094ZM409.991 101.961C409.903 101.922 409.914 101.908 409.95 101.954C409.97 101.979 409.99 102.013 410.004 102.055C410.018 102.097 410.022 102.133 410.022 102.156H408.022C408.022 102.529 408.14 102.886 408.375 103.187C408.599 103.472 408.891 103.661 409.178 103.789L409.991 101.961ZM410.022 102.156C410.022 102.184 410.019 102.163 410.04 102.063C410.059 101.973 410.09 101.85 410.138 101.688L408.219 101.124C408.117 101.472 408.022 101.849 408.022 102.156H410.022ZM410.119 101.745L423.275 65.2138L421.394 64.5362L408.237 101.067L410.119 101.745ZM423.28 65.201C423.28 65.2003 423.279 65.2022 423.278 65.2048C423.276 65.2073 423.276 65.2061 423.281 65.2013C423.292 65.1914 423.33 65.1592 423.424 65.1211C423.623 65.0394 423.98 64.9688 424.553 64.9688V62.9688C423.856 62.9688 423.207 63.0491 422.667 63.2696C422.103 63.5001 421.61 63.9089 421.389 64.549L423.28 65.201ZM424.553 64.9688H426.178V62.9688H424.553V64.9688ZM426.178 64.9688C426.752 64.9688 427.108 65.0394 427.308 65.1211C427.401 65.1592 427.44 65.1914 427.45 65.2013C427.455 65.2061 427.455 65.2073 427.454 65.2048C427.452 65.2022 427.451 65.2003 427.452 65.201L429.342 64.549C429.122 63.9089 428.629 63.5001 428.064 63.2696C427.525 63.0491 426.876 62.9688 426.178 62.9688V64.9688ZM427.456 65.2136L440.612 101.776L442.494 101.099L429.338 64.5364L427.456 65.2136ZM440.643 101.851C440.688 101.951 440.71 102.05 440.71 102.156H442.71C442.71 101.762 442.626 101.382 442.464 101.024L440.643 101.851ZM440.71 102.156C440.71 102.085 440.739 101.993 440.795 101.926C440.836 101.877 440.849 101.892 440.752 101.931C440.541 102.015 440.11 102.094 439.366 102.094V104.094C440.184 104.094 440.924 104.016 441.495 103.788C441.789 103.67 442.095 103.49 442.331 103.207C442.583 102.905 442.71 102.54 442.71 102.156H440.71ZM439.366 102.094H438.897V104.094H439.366V102.094ZM438.897 102.094C438.309 102.094 437.939 102.025 437.728 101.943C437.537 101.869 437.568 101.824 437.589 101.882L435.705 102.555C435.934 103.196 436.444 103.59 437.003 103.807C437.543 104.017 438.193 104.094 438.897 104.094V102.094ZM437.589 101.883L434.339 92.7582L432.455 93.4293L435.705 102.554L437.589 101.883ZM433.397 92.0938H417.085V94.0938H433.397V92.0938ZM416.14 92.764L412.953 101.889L414.841 102.549L418.029 93.4235L416.14 92.764ZM412.945 101.913C412.969 101.839 413.015 101.874 412.835 101.945C412.632 102.025 412.267 102.094 411.678 102.094V104.094C412.381 104.094 413.032 104.017 413.569 103.805C414.128 103.585 414.638 103.182 414.849 102.525L412.945 101.913ZM411.678 102.094H411.397V104.094H411.678V102.094ZM432.84 88.5433L427.028 72.012L425.141 72.6755L430.954 89.2067L432.84 88.5433ZM427.024 72.002C426.881 71.6076 426.759 71.1439 426.663 70.6055L424.694 70.957C424.806 71.5853 424.955 72.1632 425.145 72.6855L427.024 72.002ZM426.663 70.6055C426.56 70.0294 426.467 69.4748 426.385 68.9417L424.409 69.2458C424.493 69.796 424.588 70.3664 424.694 70.957L426.663 70.6055ZM425.397 68.0938H425.272V70.0938H425.397V68.0938ZM424.288 68.9175C424.043 70.2855 423.776 71.2909 423.502 71.968L425.355 72.7195C425.705 71.855 426.001 70.6936 426.256 69.27L424.288 68.9175ZM423.485 72.012L417.672 88.5433L419.559 89.2067L425.372 72.6755L423.485 72.012ZM418.616 89.875H431.897V87.875H418.616V89.875ZM445.618 77.1562L444.64 77.3632L444.641 77.3671L445.618 77.1562ZM446.306 74.4062L446.569 75.371L446.579 75.3684L446.588 75.3656L446.306 74.4062ZM449.993 76.6562L449.009 76.832L449.012 76.849L449.016 76.8658L449.993 76.6562ZM450.243 77.7812L449.273 78.0238L449.713 79.7843L450.967 78.4719L450.243 77.7812ZM468.431 96.5312L467.512 96.1363L467.509 96.1436L468.431 96.5312ZM454.275 102.594L453.912 103.525L453.917 103.527L454.275 102.594ZM450.618 100.5L451.223 99.7033L449.618 98.4862V100.5H450.618ZM457.493 99.2188V100.219H457.506L457.519 100.218L457.493 99.2188ZM463.181 80.5938L462.322 81.1056L462.328 81.1163L463.181 80.5938ZM454.275 78.6562L453.828 77.7618L453.822 77.7647L454.275 78.6562ZM450.618 81.5L449.881 80.8248L449.618 81.1115V81.5H450.618ZM450.618 96.7188H449.618V97.1933L449.986 97.4934L450.618 96.7188ZM448.212 113.562C447.52 113.562 447.157 113.463 447.001 113.379C446.938 113.344 446.94 113.33 446.955 113.353C446.97 113.379 446.962 113.387 446.962 113.344H444.962C444.962 113.706 445.048 114.071 445.251 114.401C445.453 114.729 445.737 114.968 446.048 115.137C446.642 115.459 447.405 115.562 448.212 115.562V113.562ZM446.962 113.344V82.375H444.962V113.344H446.962ZM446.962 82.375C446.962 79.952 446.849 78.1201 446.596 76.9454L444.641 77.3671C444.846 78.3174 444.962 79.9647 444.962 82.375H446.962ZM446.597 76.9493C446.483 76.4095 446.398 75.9971 446.343 75.709C446.315 75.5642 446.295 75.4568 446.283 75.3829C446.265 75.2747 446.275 75.3036 446.275 75.375H444.275C444.275 75.4985 444.299 75.6407 444.309 75.7069C444.326 75.8075 444.349 75.9358 444.379 76.0879C444.438 76.3936 444.525 76.8196 444.64 77.3632L446.597 76.9493ZM446.275 75.375C446.275 75.3887 446.271 75.4209 446.255 75.4594C446.238 75.4972 446.219 75.5163 446.217 75.5179C446.217 75.5179 446.223 75.5129 446.236 75.504C446.249 75.4951 446.269 75.4829 446.298 75.4685C446.358 75.4391 446.445 75.4048 446.569 75.371L446.043 73.4415C445.615 73.5581 445.184 73.7441 444.848 74.0602C444.481 74.4045 444.275 74.8608 444.275 75.375H446.275ZM446.588 75.3656C447.221 75.1795 447.792 75.0938 448.306 75.0938V73.0938C447.57 73.0938 446.808 73.2163 446.024 73.4469L446.588 75.3656ZM448.306 75.0938C448.345 75.0938 448.366 75.0989 448.375 75.1015C448.382 75.1039 448.388 75.1067 448.396 75.1125C448.412 75.1241 448.474 75.177 448.548 75.3436L450.376 74.5314C450.2 74.1355 449.945 73.7665 449.575 73.4969C449.195 73.2198 448.758 73.0938 448.306 73.0938V75.0938ZM448.548 75.3436C448.767 75.8353 448.92 76.3311 449.009 76.832L450.978 76.4805C450.859 75.8148 450.658 75.1647 450.376 74.5314L448.548 75.3436ZM449.016 76.8658C449.14 77.4446 449.227 77.8374 449.273 78.0238L451.214 77.5387C451.177 77.3918 451.097 77.0346 450.971 76.4467L449.016 76.8658ZM450.967 78.4719C453.46 75.8603 456.159 74.625 459.087 74.625V72.625C455.515 72.625 452.318 74.1605 449.52 77.0906L450.967 78.4719ZM459.087 74.625C461.112 74.625 462.818 75.1971 464.252 76.319L465.485 74.7435C463.669 73.3238 461.521 72.625 459.087 72.625V74.625ZM464.252 76.319C465.711 77.4597 466.852 79.0592 467.652 81.1674L469.522 80.4576C468.614 78.0658 467.276 76.1444 465.485 74.7435L464.252 76.319ZM467.652 81.1674C468.456 83.2843 468.868 85.7233 468.868 88.5H470.868C470.868 85.5267 470.427 82.8407 469.522 80.4576L467.652 81.1674ZM468.868 88.5C468.868 91.5267 468.404 94.0622 467.512 96.1363L469.35 96.9262C470.375 94.5419 470.868 91.7233 470.868 88.5H468.868ZM467.509 96.1436C466.634 98.2249 465.425 99.7442 463.905 100.763L465.019 102.424C466.917 101.152 468.353 99.2959 469.353 96.9189L467.509 96.1436ZM463.905 100.763C462.375 101.789 460.604 102.312 458.556 102.312V104.312C460.966 104.312 463.132 103.69 465.019 102.424L463.905 100.763ZM458.556 102.312C457.051 102.312 455.748 102.088 454.633 101.66L453.917 103.527C455.301 104.058 456.853 104.312 458.556 104.312V102.312ZM454.638 101.662C453.507 101.221 452.368 100.572 451.223 99.7033L450.014 101.297C451.285 102.261 452.584 103.008 453.912 103.525L454.638 101.662ZM449.618 100.5V113.344H451.618V100.5H449.618ZM449.618 113.344C449.618 113.393 449.609 113.388 449.624 113.364C449.637 113.341 449.641 113.353 449.585 113.384C449.442 113.464 449.1 113.562 448.431 113.562V115.562C449.22 115.562 449.972 115.458 450.558 115.131C450.867 114.96 451.144 114.718 451.34 114.39C451.537 114.062 451.618 113.701 451.618 113.344H449.618ZM448.431 113.562H448.212V115.562H448.431V113.562ZM457.519 100.218C460.257 100.149 462.439 99.1283 463.901 97.0812L462.274 95.9188C461.236 97.3717 459.688 98.1631 457.468 98.2191L457.519 100.218ZM463.901 97.0812C465.322 95.0915 465.962 92.3098 465.962 88.875H463.962C463.962 92.1069 463.352 94.4085 462.274 95.9188L463.901 97.0812ZM465.962 88.875C465.962 85.2043 465.358 82.2321 464.034 80.0712L462.328 81.1163C463.379 82.8304 463.962 85.379 463.962 88.875H465.962ZM464.04 80.0819C462.7 77.8328 460.693 76.6562 458.118 76.6562V78.6562C459.961 78.6562 461.328 79.438 462.322 81.1056L464.04 80.0819ZM458.118 76.6562C456.704 76.6562 455.271 77.0403 453.828 77.7618L454.722 79.5507C455.946 78.9389 457.074 78.6562 458.118 78.6562V76.6562ZM453.822 77.7647C452.389 78.4925 451.076 79.5186 449.881 80.8248L451.356 82.1752C452.411 81.0231 453.535 80.1534 454.728 79.5478L453.822 77.7647ZM449.618 81.5V96.7188H451.618V81.5H449.618ZM449.986 97.4934C452.199 99.3 454.712 100.219 457.493 100.219V98.2188C455.191 98.2188 453.121 97.4709 451.251 95.9441L449.986 97.4934ZM476.277 77.1562L475.299 77.3632L475.3 77.3671L476.277 77.1562ZM476.965 74.4062L477.228 75.371L477.238 75.3684L477.247 75.3656L476.965 74.4062ZM480.652 76.6562L479.668 76.832L479.671 76.849L479.675 76.8658L480.652 76.6562ZM480.902 77.7812L479.932 78.0238L480.372 79.7843L481.626 78.4719L480.902 77.7812ZM499.09 96.5312L498.171 96.1363L498.168 96.1436L499.09 96.5312ZM484.934 102.594L484.571 103.525L484.576 103.527L484.934 102.594ZM481.277 100.5L481.882 99.7033L480.277 98.4862V100.5H481.277ZM488.152 99.2188V100.219H488.165L488.178 100.218L488.152 99.2188ZM493.84 80.5938L492.981 81.1056L492.987 81.1163L493.84 80.5938ZM484.934 78.6562L484.487 77.7618L484.481 77.7647L484.934 78.6562ZM481.277 81.5L480.54 80.8248L480.277 81.1115V81.5H481.277ZM481.277 96.7188H480.277V97.1933L480.645 97.4934L481.277 96.7188ZM478.871 113.562C478.179 113.562 477.816 113.463 477.66 113.379C477.597 113.344 477.599 113.33 477.614 113.353C477.629 113.379 477.621 113.387 477.621 113.344H475.621C475.621 113.706 475.707 114.071 475.91 114.401C476.112 114.729 476.396 114.968 476.707 115.137C477.301 115.459 478.064 115.562 478.871 115.562V113.562ZM477.621 113.344V82.375H475.621V113.344H477.621ZM477.621 82.375C477.621 79.952 477.508 78.1201 477.255 76.9454L475.3 77.3671C475.505 78.3174 475.621 79.9647 475.621 82.375H477.621ZM477.256 76.9493C477.142 76.4095 477.057 75.9971 477.002 75.709C476.974 75.5642 476.954 75.4568 476.942 75.3829C476.924 75.2747 476.934 75.3036 476.934 75.375H474.934C474.934 75.4985 474.958 75.6407 474.968 75.7069C474.985 75.8075 475.008 75.9358 475.038 76.0879C475.097 76.3936 475.184 76.8196 475.299 77.3632L477.256 76.9493ZM476.934 75.375C476.934 75.3887 476.93 75.4209 476.914 75.4594C476.897 75.4972 476.878 75.5163 476.876 75.5179C476.876 75.5179 476.882 75.5129 476.895 75.504C476.908 75.4951 476.928 75.4829 476.957 75.4685C477.017 75.4391 477.104 75.4048 477.228 75.371L476.702 73.4415C476.274 73.5581 475.843 73.7441 475.507 74.0602C475.14 74.4045 474.934 74.8608 474.934 75.375H476.934ZM477.247 75.3656C477.88 75.1795 478.451 75.0938 478.965 75.0938V73.0938C478.229 73.0938 477.467 73.2163 476.683 73.4469L477.247 75.3656ZM478.965 75.0938C479.004 75.0938 479.025 75.0989 479.034 75.1015C479.041 75.1039 479.047 75.1067 479.055 75.1125C479.071 75.1241 479.133 75.177 479.207 75.3436L481.035 74.5314C480.859 74.1355 480.604 73.7665 480.234 73.4969C479.854 73.2198 479.417 73.0938 478.965 73.0938V75.0938ZM479.207 75.3436C479.426 75.8353 479.579 76.3311 479.668 76.832L481.637 76.4805C481.518 75.8148 481.317 75.1647 481.035 74.5314L479.207 75.3436ZM479.675 76.8658C479.799 77.4446 479.886 77.8374 479.932 78.0238L481.873 77.5387C481.836 77.3918 481.756 77.0346 481.63 76.4467L479.675 76.8658ZM481.626 78.4719C484.119 75.8603 486.818 74.625 489.746 74.625V72.625C486.174 72.625 482.977 74.1605 480.179 77.0906L481.626 78.4719ZM489.746 74.625C491.771 74.625 493.477 75.1971 494.911 76.319L496.144 74.7435C494.328 73.3238 492.18 72.625 489.746 72.625V74.625ZM494.911 76.319C496.37 77.4597 497.511 79.0592 498.311 81.1674L500.181 80.4576C499.273 78.0658 497.935 76.1444 496.144 74.7435L494.911 76.319ZM498.311 81.1674C499.115 83.2843 499.527 85.7233 499.527 88.5H501.527C501.527 85.5267 501.086 82.8407 500.181 80.4576L498.311 81.1674ZM499.527 88.5C499.527 91.5267 499.063 94.0622 498.171 96.1363L500.009 96.9262C501.034 94.5419 501.527 91.7233 501.527 88.5H499.527ZM498.168 96.1436C497.293 98.2249 496.084 99.7442 494.564 100.763L495.678 102.424C497.576 101.152 499.012 99.2959 500.012 96.9189L498.168 96.1436ZM494.564 100.763C493.034 101.789 491.263 102.312 489.215 102.312V104.312C491.625 104.312 493.791 103.69 495.678 102.424L494.564 100.763ZM489.215 102.312C487.71 102.312 486.407 102.088 485.292 101.66L484.576 103.527C485.96 104.058 487.512 104.312 489.215 104.312V102.312ZM485.297 101.662C484.166 101.221 483.027 100.572 481.882 99.7033L480.673 101.297C481.944 102.261 483.243 103.008 484.571 103.525L485.297 101.662ZM480.277 100.5V113.344H482.277V100.5H480.277ZM480.277 113.344C480.277 113.393 480.268 113.388 480.283 113.364C480.296 113.341 480.3 113.353 480.244 113.384C480.101 113.464 479.759 113.562 479.09 113.562V115.562C479.879 115.562 480.631 115.458 481.217 115.131C481.526 114.96 481.803 114.718 481.999 114.39C482.196 114.062 482.277 113.701 482.277 113.344H480.277ZM479.09 113.562H478.871V115.562H479.09V113.562ZM488.178 100.218C490.916 100.149 493.098 99.1283 494.56 97.0812L492.933 95.9188C491.895 97.3717 490.347 98.1631 488.127 98.2191L488.178 100.218ZM494.56 97.0812C495.981 95.0915 496.621 92.3098 496.621 88.875H494.621C494.621 92.1069 494.011 94.4085 492.933 95.9188L494.56 97.0812ZM496.621 88.875C496.621 85.2043 496.017 82.2321 494.693 80.0712L492.987 81.1163C494.038 82.8304 494.621 85.379 494.621 88.875H496.621ZM494.699 80.0819C493.359 77.8328 491.352 76.6562 488.777 76.6562V78.6562C490.62 78.6562 491.987 79.438 492.981 81.1056L494.699 80.0819ZM488.777 76.6562C487.363 76.6562 485.93 77.0403 484.487 77.7618L485.381 79.5507C486.605 78.9389 487.733 78.6562 488.777 78.6562V76.6562ZM484.481 77.7647C483.048 78.4925 481.735 79.5186 480.54 80.8248L482.015 82.1752C483.07 81.0231 484.194 80.1534 485.387 79.5478L484.481 77.7647ZM480.277 81.5V96.7188H482.277V81.5H480.277ZM480.645 97.4934C482.858 99.3 485.371 100.219 488.152 100.219V98.2188C485.85 98.2188 483.78 97.4709 481.91 95.9441L480.645 97.4934Z" fill="white"/>
<path d="M88.125 137.875C87.3333 137.875 86.75 137.729 86.375 137.438C86.0417 137.188 85.875 136.75 85.875 136.125V130.625C81.9167 130.542 78.25 130.062 74.875 129.188C71.5417 128.271 68.875 127.208 66.875 126C64.9167 124.75 63.9375 123.604 63.9375 122.562C63.9375 121.979 64.1667 121.208 64.625 120.25C65.125 119.292 65.6667 118.438 66.25 117.688C66.875 116.938 67.3958 116.562 67.8125 116.562C68.0625 116.562 68.7292 116.896 69.8125 117.562C72.1875 118.938 74.6042 120.104 77.0625 121.062C79.5208 121.979 82.4583 122.5 85.875 122.625V94C81.375 92.25 77.7708 90.6458 75.0625 89.1875C72.3958 87.7292 70.1042 85.6042 68.1875 82.8125C66.2708 80.0208 65.3125 76.4167 65.3125 72C65.3125 68.4167 66.1458 65.2083 67.8125 62.375C69.5208 59.5417 71.9167 57.25 75 55.5C78.0833 53.75 81.7083 52.6667 85.875 52.25V47.5625C85.875 46.9375 86.0417 46.4792 86.375 46.1875C86.75 45.8958 87.3333 45.75 88.125 45.75C88.9167 45.75 89.4792 45.8958 89.8125 46.1875C90.1875 46.4792 90.375 46.9375 90.375 47.5625V51.9375C92.625 52.0208 95.125 52.3542 97.875 52.9375C100.667 53.4792 103.021 54.2292 104.938 55.1875C106.896 56.1458 107.875 57.1875 107.875 58.3125C107.875 58.8542 107.646 59.6042 107.188 60.5625C106.771 61.4792 106.271 62.3125 105.688 63.0625C105.146 63.8125 104.708 64.1875 104.375 64.1875C103.958 64.1875 103.167 63.875 102 63.25C100.167 62.2917 98.375 61.5208 96.625 60.9375C94.9167 60.3542 92.8333 60.0208 90.375 59.9375V85.875C94.9167 87.5417 98.5833 89.125 101.375 90.625C104.167 92.0833 106.562 94.2917 108.562 97.25C110.604 100.167 111.625 104 111.625 108.75C111.625 112.917 110.75 116.583 109 119.75C107.292 122.875 104.833 125.375 101.625 127.25C98.4167 129.083 94.6667 130.188 90.375 130.562V136.125C90.375 136.75 90.1875 137.188 89.8125 137.438C89.4792 137.729 88.9167 137.875 88.125 137.875ZM85.875 60.375C82.625 60.9167 80.0625 62.2083 78.1875 64.25C76.3542 66.2917 75.4375 69.0208 75.4375 72.4375C75.4375 75.3542 76.3333 77.7083 78.125 79.5C79.9167 81.25 82.5 82.8333 85.875 84.25V60.375ZM90.375 122.312C93.6667 121.688 96.3333 120.167 98.375 117.75C100.458 115.292 101.5 112.292 101.5 108.75C101.5 105.542 100.521 102.979 98.5625 101.062C96.6458 99.1042 93.9167 97.3333 90.375 95.75V122.312Z" fill="white"/>
</svg>
